<?xml version="1.0" standalone="no"?>
<!DOCTYPE svg PUBLIC "-//W3C//DTD SVG 20010904//EN"
 "http://www.w3.org/TR/2001/REC-SVG-20010904/DTD/svg10.dtd">
<svg version="1.0" xmlns="http://www.w3.org/2000/svg"
 width="431.000000pt" height="431.000000pt" viewBox="0 0 431.000000 431.000000"
 preserveAspectRatio="xMidYMid meet">
<metadata>
Created by potrace 1.14, written by Peter Selinger 2001-2017
</metadata>
<g transform="translate(0.000000,431.000000) scale(0.100000,-0.100000)"
fill="#000000" stroke="none">
<path d="M0 3286 l0 -1024 363 -4 c387 -5 416 -1 402 42 -6 20 7 50 41 90 12
14 25 42 28 63 4 20 20 65 35 100 15 34 34 80 41 101 7 22 23 51 36 65 13 14
24 37 24 51 0 14 9 31 20 38 11 6 17 18 14 26 -3 9 11 29 35 52 23 20 44 48
48 62 3 14 14 33 24 43 11 11 19 26 19 34 0 8 7 15 15 15 8 0 15 4 15 9 0 6
13 18 29 27 17 10 32 28 36 42 6 23 62 82 126 132 17 14 45 37 61 52 16 15 51
39 78 54 49 27 120 89 120 106 0 4 7 8 15 8 8 0 15 5 15 11 0 6 6 9 14 6 8 -3
47 7 88 23 43 17 84 27 96 23 13 -3 22 -1 22 6 0 7 5 9 10 6 6 -3 10 -1 10 5
0 6 4 9 9 6 5 -3 21 1 37 8 16 8 43 13 59 12 17 -2 42 3 57 10 15 8 39 11 57
8 17 -4 31 -2 31 3 0 5 29 9 64 9 46 0 69 5 81 17 20 21 29 21 48 3 15 -16 67
-25 177 -32 210 -13 258 -19 277 -36 11 -10 35 -21 54 -24 19 -4 41 -12 49
-19 20 -17 46 -24 98 -27 23 -1 42 -6 42 -10 0 -4 6 -8 14 -8 7 0 16 -10 19
-21 4 -14 11 -20 21 -16 8 3 17 -1 20 -9 3 -8 9 -13 13 -12 4 1 59 -47 121
-108 63 -60 125 -115 138 -122 13 -7 24 -18 24 -24 0 -6 11 -26 25 -44 14 -18
25 -37 25 -43 0 -5 8 -12 18 -15 10 -3 31 -35 47 -71 16 -36 31 -65 35 -65 14
0 40 -74 40 -115 0 -25 5 -45 10 -45 6 0 10 -8 10 -18 0 -10 7 -28 16 -41 9
-13 17 -43 18 -67 0 -24 5 -44 10 -44 5 0 3 -7 -4 -15 -10 -12 -10 -19 -2 -27
8 -8 8 -17 1 -30 -6 -12 -6 -18 0 -18 10 0 9 -33 -4 -81 -4 -16 -2 -30 4 -33
6 -4 11 -40 11 -86 l0 -78 39 5 c21 3 47 0 58 -5 14 -8 23 -8 31 0 8 8 12 9
12 1 0 -15 90 -7 106 10 15 15 117 7 136 -10 11 -10 18 -12 18 -4 0 8 5 9 19
1 11 -5 69 -10 130 -10 l111 0 0 1050 0 1050 -2155 0 -2155 0 0 -1024z"/>
<path d="M2248 3458 c-7 -7 -20 -15 -28 -16 -42 -10 -141 -22 -188 -22 -34 0
-59 -5 -68 -15 -9 -8 -32 -15 -52 -15 -20 0 -46 -7 -56 -15 -11 -8 -30 -15
-41 -15 -12 0 -32 -9 -45 -20 -13 -11 -29 -20 -37 -20 -7 0 -13 -4 -13 -10 0
-5 -9 -10 -21 -10 -11 0 -17 -5 -14 -10 3 -6 -2 -13 -12 -16 -55 -18 -73 -28
-78 -45 -4 -10 -12 -19 -19 -19 -7 0 -22 -11 -33 -24 -11 -13 -34 -29 -52 -37
-17 -8 -31 -21 -31 -30 0 -19 -44 -59 -65 -59 -8 0 -15 -6 -15 -14 0 -19 -55
-76 -73 -76 -10 0 -13 -8 -10 -23 3 -13 -2 -30 -10 -39 -23 -22 -68 -118 -62
-128 4 -6 1 -10 -5 -10 -6 0 -8 -5 -5 -10 3 -6 -1 -13 -9 -16 -9 -3 -18 -25
-22 -50 -3 -25 -24 -80 -46 -122 -29 -55 -39 -85 -36 -109 3 -22 0 -33 -9 -33
-7 0 -24 -22 -37 -49 -26 -51 -29 -112 -7 -134 12 -12 162 -15 497 -9 l131 2
7 40 c3 22 11 40 16 40 6 0 10 9 10 19 0 11 5 21 11 23 6 2 23 33 38 70 16 36
42 83 59 104 16 22 33 49 37 62 8 28 130 130 165 139 13 4 46 22 73 41 56 41
134 62 227 62 70 0 140 -15 140 -30 0 -6 7 -10 16 -10 9 0 18 -9 21 -20 4 -14
14 -20 35 -20 17 0 46 -10 65 -21 19 -12 42 -23 51 -24 10 -1 25 -4 35 -8 9
-4 24 -9 32 -12 8 -2 18 -17 21 -32 4 -15 16 -34 27 -42 25 -18 77 -100 77
-123 0 -10 4 -18 9 -18 13 0 28 -115 19 -140 -5 -13 -4 -39 2 -62 l11 -39 249
3 c136 2 251 6 254 9 3 3 7 30 9 60 2 30 9 64 15 76 16 29 15 90 0 100 -14 9
-14 10 -24 128 -3 46 -14 98 -26 122 -11 23 -16 48 -12 54 3 6 2 14 -3 18 -5
3 -22 28 -37 55 -15 26 -37 57 -48 68 -11 11 -17 26 -14 33 3 8 -8 25 -24 39
-17 14 -30 29 -30 34 0 6 -15 23 -32 39 -18 15 -38 40 -45 55 -7 15 -29 34
-50 44 -21 10 -59 37 -85 61 -26 24 -54 43 -62 43 -7 0 -16 6 -19 14 -6 15
-89 56 -113 56 -8 0 -14 5 -14 10 0 6 -11 10 -24 10 -14 0 -27 4 -31 9 -3 6
-26 13 -50 17 -25 3 -45 10 -45 15 0 5 -20 9 -44 9 -25 0 -48 5 -51 10 -3 6
-39 10 -79 10 -53 0 -77 4 -86 15 -15 18 -93 20 -112 3z"/>
<path d="M2250 2697 c-14 -7 -36 -20 -50 -27 -14 -8 -35 -16 -47 -17 -19 -3
-49 -29 -185 -159 -16 -15 -28 -35 -28 -44 0 -10 -4 -20 -8 -22 -18 -7 -52
-101 -52 -143 l0 -45 110 0 c61 0 110 -4 110 -9 0 -20 43 -22 88 -6 71 25 92
37 92 52 0 7 10 24 22 38 19 22 29 25 95 25 66 0 73 -2 73 -20 0 -16 -7 -20
-33 -20 -38 0 -57 -15 -57 -46 0 -25 20 -36 41 -23 8 6 87 9 181 7 91 -2 169
0 173 4 6 6 9 22 19 113 1 11 -6 36 -16 55 -10 19 -18 45 -18 57 0 13 -4 23
-9 23 -5 0 -11 12 -13 27 -2 21 -20 39 -78 80 -41 28 -81 52 -87 52 -7 1 -13
5 -13 9 0 32 -264 65 -310 39z"/>
<path d="M3603 2127 c-12 -6 -24 -22 -28 -34 -3 -13 -10 -23 -15 -23 -5 0 -7
-7 -4 -15 4 -10 0 -15 -15 -15 -17 0 -21 -6 -21 -30 0 -16 -4 -30 -10 -30 -5
0 -10 -10 -10 -22 0 -27 -110 -248 -124 -248 -12 0 -101 -94 -122 -129 -9 -15
-31 -36 -50 -49 -19 -12 -34 -26 -34 -31 0 -5 -16 -19 -36 -31 -21 -14 -33
-28 -30 -36 4 -10 -2 -14 -19 -14 -13 0 -28 -6 -32 -13 -4 -6 -19 -17 -33 -24
-44 -20 -175 -68 -187 -68 -13 0 -45 -20 -68 -42 -30 -28 -93 -35 -302 -31
-205 3 -213 4 -233 26 -18 19 -43 28 -53 20 -1 -2 -15 7 -31 20 -16 12 -39 22
-52 22 -13 0 -23 5 -21 11 1 6 -16 18 -38 27 -22 8 -47 24 -56 34 -9 10 -21
18 -28 18 -6 0 -11 9 -11 20 0 11 -4 20 -10 20 -5 0 -10 7 -10 15 0 8 -4 14
-9 13 -11 -4 -131 114 -131 128 0 6 -18 48 -41 94 -54 112 -66 150 -62 199 2
25 -3 54 -13 73 -9 17 -14 44 -12 59 4 25 1 29 -19 29 -13 0 -22 4 -18 9 3 5
-3 12 -13 16 -22 6 -52 -3 -52 -16 0 -14 -124 -11 -138 3 -8 8 -12 8 -12 1 0
-9 -45 -11 -288 -13 -40 0 -61 -4 -57 -10 3 -5 2 -10 -4 -10 -15 0 -33 -67
-23 -87 4 -10 8 -76 7 -148 -1 -102 3 -142 18 -185 24 -73 59 -217 62 -260 6
-81 18 -140 30 -140 18 0 41 -78 27 -92 -17 -17 -16 -164 1 -171 7 -2 17 -24
24 -48 6 -24 21 -54 33 -67 38 -40 17 -52 -101 -57 l-105 -5 -18 34 c-11 21
-24 32 -32 29 -8 -3 -14 1 -14 8 0 7 -3 10 -6 6 -14 -13 -104 125 -104 159 0
6 -13 29 -30 50 -16 22 -33 44 -37 49 -5 6 -23 39 -40 74 -33 65 -42 111 -22
111 8 0 8 4 0 14 -7 8 -12 33 -13 55 0 23 -4 41 -9 41 -5 0 -4 11 1 25 5 14 6
25 1 25 -18 0 -23 77 -7 102 8 13 15 46 16 73 1 71 4 98 13 113 5 6 4 12 -1
12 -5 0 -13 21 -17 48 -12 69 -13 112 -3 112 4 0 8 27 8 60 l0 60 -32 0 c-18
0 -168 7 -333 15 -165 8 -310 15 -322 15 l-23 0 0 -1040 0 -1040 2155 0 2155
0 0 1070 0 1069 -47 -4 c-27 -3 -145 -7 -263 -9 -118 -3 -225 -8 -236 -11 -12
-4 -42 0 -68 9 -52 18 -62 18 -93 3z"/>
<path d="M2883 2120 c-60 -4 -79 -10 -117 -37 -25 -18 -46 -39 -46 -46 0 -8
-21 -25 -47 -38 -27 -13 -51 -28 -54 -32 -3 -4 -31 -11 -63 -14 -31 -3 -59
-10 -62 -14 -9 -16 -81 -10 -88 6 -3 8 -15 15 -26 15 -11 0 -20 4 -20 9 0 5
-9 11 -20 14 -11 3 -25 18 -32 34 -15 33 -32 53 -47 53 -6 0 -11 5 -11 10 0
14 -133 13 -148 -2 -9 -9 -15 -9 -24 0 -15 15 -198 17 -198 2 0 -5 -7 -10 -16
-10 -11 0 -14 -5 -10 -16 4 -9 2 -22 -3 -28 -9 -11 20 -155 39 -188 6 -10 10
-25 10 -33 0 -8 5 -15 10 -15 6 0 10 -9 10 -19 0 -10 6 -21 14 -24 7 -3 23
-26 36 -51 12 -25 28 -46 35 -46 8 0 29 -18 46 -40 18 -22 41 -40 51 -40 10 0
21 -7 24 -15 4 -9 19 -15 35 -15 16 0 29 -4 29 -8 0 -5 18 -15 40 -22 22 -7
40 -16 40 -20 0 -4 15 -11 33 -15 17 -4 39 -10 47 -13 28 -10 300 -11 300 -1
0 6 9 8 19 4 11 -3 22 -1 26 5 3 5 21 10 40 10 19 0 37 5 40 10 3 6 23 10 43
10 26 0 42 6 52 20 8 11 23 20 33 20 9 0 20 7 23 15 4 8 13 15 21 15 7 0 25
11 39 25 14 14 32 25 40 25 19 0 146 135 157 166 5 13 14 24 20 24 16 1 116
205 123 251 10 59 -4 63 -199 64 -95 0 -204 -2 -244 -5z"/>
<path d="M2554 2105 c-5 -11 -24 -15 -80 -15 -43 0 -74 -4 -74 -10 0 -5 -7
-10 -16 -10 -10 0 -14 -7 -12 -22 4 -31 54 -47 148 -47 80 -1 140 22 140 54 0
8 7 15 15 15 20 0 16 32 -5 42 -30 13 -110 9 -116 -7z"/>
</g>
</svg>
